<svg width="512" height="512" viewBox="0 0 512 512" fill="none" xmlns="http://www.w3.org/2000/svg">
<rect width="512" height="512" rx="64" fill="white"/>
<path d="M200.52 78V236.84H172.344V168.895C160.239 181.176 145.63 187.316 128.516 187.316C114.95 187.316 104.306 183.491 96.5833 175.841C88.8611 168.191 85 157.42 85 143.529V78H113.176V141.113C113.176 149.569 115.158 155.809 119.124 159.836C123.089 163.862 129.037 165.875 136.968 165.875C143.438 165.875 149.908 164.365 156.378 161.346C162.848 158.125 168.17 153.897 172.344 148.663V78H200.52Z" fill="black"/>
<path d="M397.976 433.44V369.201H338.504V433.44H310.48V289.04H338.504V349.71H397.976V289.04H426V433.44H397.976Z" fill="black"/>
<path d="M279.366 96.8799L306.04 102.545L231.634 400.12L204.96 394.455L279.366 96.8799Z" fill="#BD3430"/>
</svg>
