<?xml version="1.0" encoding="UTF-8"?>
<svg width="508px" height="508px" viewBox="0 0 508 508" version="1.1" xmlns="http://www.w3.org/2000/svg" xmlns:xlink="http://www.w3.org/1999/xlink">
    <!-- Generator: Sketch 47.1 (45422) - http://www.bohemiancoding.com/sketch -->
    <title>Group</title>
    <desc>Created with Sketch.</desc>
    <defs></defs>
    <g id="Page-1" stroke="none" stroke-width="1" fill="none" fill-rule="evenodd">
        <g id="Group" transform="translate(0.000000, 113.000000)" fill-rule="nonzero">
            <path d="M480.417467,33.4464387 C477.965951,34.672197 475.262713,35.3103448 472.521834,35.3103448 C462.771152,35.3103448 454.866662,27.4058549 454.866662,17.6551724 L454.866662,46.2218415 L480.417467,33.4464387 Z M454.866662,236.260917 L472.521834,236.260917 C462.771152,236.260917 454.866662,244.165407 454.866662,253.91609 L454.866662,236.260917 Z M448.834935,49.237705 L434.028694,19.6252223 L464.626201,1.86390615 C467.077718,0.638147827 469.780955,1.83575892e-15 472.521834,1.33226763e-15 C482.272517,-4.58903684e-16 490.177007,7.90448993 490.177007,17.6551724 L490.177007,253.91609 C490.177007,263.666772 482.272517,271.571262 472.521834,271.571262 L-7.10542736e-15,271.571262 L60.8293064,236.260917 L454.866662,236.260917 L454.866662,46.2218415 L448.834935,49.237705 Z M472.521834,236.260917 C462.771152,236.260917 454.866662,244.165407 454.866662,253.91609 L454.866662,236.260917 L472.521834,236.260917 Z M454.866662,17.6551724 C454.866662,27.4058549 462.771152,35.3103448 472.521834,35.3103448 C475.262713,35.3103448 477.965951,34.672197 480.417467,33.4464387 L454.866662,46.2218415 L454.866662,17.6551724 Z M454.866662,236.260917 L454.866662,46.2218415 L448.834935,49.237705 L434.028694,19.6252223 L464.626201,1.86390615 C467.077718,0.638147827 469.780955,1.83575892e-15 472.521834,1.33226763e-15 C482.272517,-4.58903684e-16 490.177007,7.90448993 490.177007,17.6551724 L490.177007,253.91609 C490.177007,263.666772 482.272517,271.571262 472.521834,271.571262 L-7.10542736e-15,271.571262 L60.8293064,236.260917 L454.866662,236.260917 Z" id="Line" fill="#2E6697" transform="translate(245.088503, 135.785631) scale(-1, -1) translate(-245.088503, -135.785631) "></path>
            <path d="M92.4475504,236.260917 L472.525702,236.260917 L472.525702,46.2218415 L92.4475504,236.260917 Z M1.86777363,261.811723 C-2.49286414,253.090447 1.04213122,242.485461 9.76340676,238.124823 L482.285241,1.86390615 C484.736758,0.638147827 487.439995,3.38197001e-15 490.180874,4.4408921e-16 C499.931557,-1.00074279e-14 507.836047,7.90448993 507.836047,17.6551724 L507.836047,253.91609 C507.836047,263.666772 499.931557,271.571262 490.180874,271.571262 L17.6590399,271.571262 C10.9717539,271.571262 4.85841884,267.793013 1.86777363,261.811723 Z" id="Line" fill="#BD3430"></path>
        </g>
    </g>
</svg>