<svg width="508" height="272" xmlns="http://www.w3.org/2000/svg"><g fill-rule="nonzero" fill="none"><path d="M9.76 238.125a17.655 17.655 0 0 1 7.895-1.864c9.75 0 17.655 7.904 17.655 17.655V225.35L9.76 238.125zM35.31 35.31H17.655c9.75 0 17.655-7.904 17.655-17.655V35.31zm6.032 187.024l14.806 29.612-30.597 17.761a17.655 17.655 0 0 1-7.896 1.864C7.905 271.571 0 263.667 0 253.916V17.656C0 7.903 7.904 0 17.655 0h472.522l-60.83 35.31H35.31v190.04l6.032-3.016zM17.655 35.31c9.75 0 17.655-7.904 17.655-17.655V35.31H17.655zM35.31 253.916c0-9.75-7.904-17.655-17.655-17.655-2.74 0-5.444.638-7.895 1.864l25.55-12.776v28.567zm0-218.606v190.04l6.032-3.016 14.806 29.612-30.597 17.761a17.655 17.655 0 0 1-7.896 1.864C7.905 271.571 0 263.667 0 253.916V17.656C0 7.903 7.904 0 17.655 0h472.522l-60.83 35.31H35.31z" fill="#2E6697"/><path d="M92.448 236.26h380.078V46.223L92.448 236.26zm-90.58 25.552c-4.36-8.722-.826-19.327 7.895-23.687L482.285 1.864A17.655 17.655 0 0 1 490.181 0c9.75 0 17.655 7.904 17.655 17.655v236.261c0 9.75-7.904 17.655-17.655 17.655H17.659c-6.687 0-12.8-3.778-15.791-9.76z" fill="#BD3430"/></g></svg>