<?xml version="1.0" standalone="no"?>
<!DOCTYPE svg PUBLIC "-//W3C//DTD SVG 20010904//EN"
 "http://www.w3.org/TR/2001/REC-SVG-20010904/DTD/svg10.dtd">
<svg version="1.0" xmlns="http://www.w3.org/2000/svg"
 width="700.000000pt" height="700.000000pt" viewBox="0 0 700.000000 700.000000"
 preserveAspectRatio="xMidYMid meet">
<metadata>
Created by potrace 1.11, written by Peter Selinger 2001-2013
</metadata>
<g transform="translate(0.000000,700.000000) scale(0.100000,-0.100000)"
fill="#000000" stroke="none">
<path d="M215 5439 c-82 -12 -133 -46 -183 -122 l-27 -42 -3 -1680 c-2 -1248
0 -1691 9 -1722 16 -57 72 -121 133 -149 l51 -24 3296 0 c3035 0 3300 2 3344
17 64 21 130 89 149 151 11 39 13 330 12 1722 l-1 1675 -22 41 c-29 54 -96
111 -147 126 -30 8 -928 11 -3306 12 -1796 0 -3283 -2 -3305 -5z m5487 -490
c-4 -4 -221 -114 -482 -244 -261 -129 -482 -239 -490 -244 -18 -10 -3789
-1895 -3810 -1905 -8 -3 -107 -53 -220 -110 l-205 -103 -5 36 c-4 28 -5 2523
-1 2566 1 8 802 11 2611 11 1435 0 2607 -3 2602 -7z m808 -1454 l0 -1305 -57
0 c-72 -1 -5107 -1 -5146 0 -17 0 935 481 2580 1304 1435 718 2611 1305 2616
1305 4 1 7 -586 7 -1304z"/>
</g>
</svg>
